<svg height="464pt" viewBox="-56 0 464 464" width="464pt" xmlns="http://www.w3.org/2000/svg"><path d="m0 376v32h32v56h48v-56h192v56h48v-56h32v-32zm0 0"/><path d="m80 112c6.167969 0 11.742188-2.40625 16-6.238281 2.3125 2.078125 5.007812 3.703125 8 4.765625v50.519531c-18.230469 4.832031-32 25.839844-32 50.953125 0 28.671875 17.945312 52 40 52s40-23.328125 40-52c0-13.96875-4.28125-26.648438-11.199219-36h27.199219v-16h-29.574219l26.015625-17.34375-8.875-13.3125-35.566406 23.710938v-42.527344c2.992188-1.0625 5.6875-2.679688 8-4.765625 4.257812 3.839843 9.832031 6.238281 16 6.238281 13.230469 0 24-10.769531 24-24v-8h96v280h64v-360h-64v32h-96v-8c0-13.230469-10.769531-24-24-24-6.167969 0-11.742188 2.40625-16 6.238281-4.257812-3.839843-9.832031-6.238281-16-6.238281s-11.742188 2.40625-16 6.238281c-4.257812-3.839843-9.832031-6.238281-16-6.238281-13.230469 0-24 10.769531-24 24v8h-32v56h32c0 13.238281 10.769531 24 24 24zm56 100c0 19.511719-10.992188 36-24 36s-24-16.488281-24-36 10.992188-36 24-36 24 16.488281 24 36zm8-196c4.414062 0 8 3.585938 8 8v64c0 4.414062-3.585938 8-8 8s-8-3.585938-8-8v-64c0-4.40625 3.585938-8 8-8zm-32 0c4.414062 0 8 3.585938 8 8v64c0 4.414062-3.585938 8-8 8s-8-3.585938-8-8v-64c0-4.40625 3.585938-8 8-8zm-40 8c0-4.414062 3.585938-8 8-8s8 3.585938 8 8v64c0 4.414062-3.585938 8-8 8s-8-3.585938-8-8zm0 0"/></svg>